ffmpeg started on 2025-06-07 at 17:26:05
Report written to "D:\Convert\FFMetrics\reports\psnr_report-6.txt"
Log level: 32
Command line:
ffmpeg -hide_banner -nostdin -i "G:\\\xc0\xed\xe8\xec\xe5\\\xce\xed\xe3\xee\xe8\xed\xe3\xe8\\!_36_\xce\xf1\xe5\xed\xfc_2024\\DreamCast\\\xdd\xe9, \xd2\xee\xec\xe1\xee!\\\xd2\xc2-1\\[DC] Ooi! Tonbo - 11_Telegram_HEVC.mkv" -i "G:\\\xc0\xed\xe8\xec\xe5\\\xce\xed\xe3\xee\xe8\xed\xe3\xe8\\!_36_\xce\xf1\xe5\xed\xfc_2024\\DreamCast\\\xdd\xe9, \xd2\xee\xec\xe1\xee!\\\xd2\xc2-1\\[DC] Ooi! Tonbo - 11_Telegram.mp4" -lavfi "[0:v]settb=AVTB,setpts=PTS-STARTPTS,format=pix_fmts=yuv420p10,fps=24000/1001,scale=1920:1080:flags=bicubic[main];[1:v]settb=AVTB,setpts=PTS-STARTPTS,format=pix_fmts=yuv420p,fps=24000/1001,scale=1920:1080:flags=bicubic[ref];[main][ref]psnr=eof_action=endall:stats_file='D\\:/Convert/FFMetrics/logs/psnr_logfile-6.txt'" -f null -
Input #0, matroska,webm, from 'G:\Аниме\Онгоинги\!_36_Осень_2024\DreamCast\Эй, Томбо!\ТВ-1\[DC] Ooi! Tonbo - 11_Telegram_HEVC.mkv':
  Metadata:
    COMPATIBLE_BRANDS: isomiso2avc1mp41
    MAJOR_BRAND     : isom
    MINOR_VERSION   : 512
    ENCODER         : Lavf61.7.100
  Duration: 00:24:21.72, start: -0.021000, bitrate: 1351 kb/s
  Stream #0:0: Video: hevc (Main 10), yuv420p10le(tv, bt709, progressive), 1920x1080 [SAR 1:1 DAR 16:9], 23.98 fps, 23.98 tbr, 1k tbn (default)
      Metadata:
        HANDLER_NAME    : VideoHandler
        VENDOR_ID       : [0][0][0][0]
        ENCODER         : Lavc61.19.100 libx265
        BPS             : 1155550
        DURATION        : 00:24:19.666708333
        NUMBER_OF_FRAMES: 34997
        NUMBER_OF_BYTES : 210839690
        _STATISTICS_WRITING_APP: mkvpropedit v66.0.0 ('Josie') 64-bit
        _STATISTICS_WRITING_DATE_UTC: 2025-06-05 15:22:34
        _STATISTICS_TAGS: BPS DURATION NUMBER_OF_FRAMES NUMBER_OF_BYTES
  Stream #0:1: Audio: aac (LC), 48000 Hz, stereo, fltp (default)
      Metadata:
        HANDLER_NAME    : SoundHandler
        VENDOR_ID       : [0][0][0][0]
        ENCODER         : Lavc61.19.100 aac
        BPS             : 193017
        DURATION        : 00:24:21.717000000
        NUMBER_OF_FRAMES: 68519
        NUMBER_OF_BYTES : 35267039
        _STATISTICS_WRITING_APP: mkvpropedit v66.0.0 ('Josie') 64-bit
        _STATISTICS_WRITING_DATE_UTC: 2025-06-05 15:22:34
        _STATISTICS_TAGS: BPS DURATION NUMBER_OF_FRAMES NUMBER_OF_BYTES
Input #1, mov,mp4,m4a,3gp,3g2,mj2, from 'G:\Аниме\Онгоинги\!_36_Осень_2024\DreamCast\Эй, Томбо!\ТВ-1\[DC] Ooi! Tonbo - 11_Telegram.mp4':
  Metadata:
    major_brand     : isom
    minor_version   : 512
    compatible_brands: isomiso2avc1mp41
    encoder         : Lavf60.16.100
  Duration: 00:24:21.66, start: 0.000000, bitrate: 3913 kb/s
  Stream #1:0[0x1](und): Video: h264 (High) (avc1 / 0x31637661), yuv420p(tv, bt709, progressive), 1920x1080 [SAR 1:1 DAR 16:9], 3770 kb/s, 23.98 fps, 23.98 tbr, 24k tbn (default)
      Metadata:
        handler_name    : VideoHandler
        vendor_id       : [0][0][0][0]
        encoder         : Lavc60.31.102 h264_qsv
  Stream #1:1[0x2](und): Audio: aac (HE-AACv2) (mp4a / 0x6134706D), 48000 Hz, stereo, fltp, 144 kb/s (default)
      Metadata:
        handler_name    : SoundHandler
        vendor_id       : [0][0][0][0]
Stream mapping:
  Stream #0:0 (hevc) -> settb:default
  Stream #1:0 (h264) -> settb:default
  psnr:default -> Stream #0:0 (wrapped_avframe)
  Stream #0:1 -> #0:1 (aac (native) -> pcm_s16le (native))
Output #0, null, to 'pipe:':
  Metadata:
    COMPATIBLE_BRANDS: isomiso2avc1mp41
    MAJOR_BRAND     : isom
    MINOR_VERSION   : 512
    encoder         : Lavf61.7.100
  Stream #0:0: Video: wrapped_avframe, yuv420p10le(tv, bt709, progressive), 1920x1080 [SAR 1:1 DAR 16:9], q=2-31, 200 kb/s, 23.98 fps, 23.98 tbn
      Metadata:
        encoder         : Lavc61.19.100 wrapped_avframe
  Stream #0:1: Audio: pcm_s16le, 48000 Hz, stereo, s16, 1536 kb/s (default)
      Metadata:
        HANDLER_NAME    : SoundHandler
        VENDOR_ID       : [0][0][0][0]
        _STATISTICS_TAGS: BPS DURATION NUMBER_OF_FRAMES NUMBER_OF_BYTES
        BPS             : 193017
        DURATION        : 00:24:21.717000000
        NUMBER_OF_FRAMES: 68519
        NUMBER_OF_BYTES : 35267039
        _STATISTICS_WRITING_APP: mkvpropedit v66.0.0 ('Josie') 64-bit
        _STATISTICS_WRITING_DATE_UTC: 2025-06-05 15:22:34
        encoder         : Lavc61.19.100 pcm_s16le
frame=  167 fps=0.0 q=-0.0 size=N/A time=00:00:06.96 bitrate=N/A speed=13.3x    frame=  419 fps=400 q=-0.0 size=N/A time=00:00:17.47 bitrate=N/A speed=16.7x    frame=  670 fps=427 q=-0.0 size=N/A time=00:00:27.94 bitrate=N/A speed=17.8x    frame=  846 fps=404 q=-0.0 size=N/A time=00:00:35.28 bitrate=N/A speed=16.9x    frame= 1036 fps=396 q=-0.0 size=N/A time=00:00:43.20 bitrate=N/A speed=16.5x    frame= 1262 fps=404 q=-0.0 size=N/A time=00:00:52.63 bitrate=N/A speed=16.9x    frame= 1458 fps=400 q=-0.0 size=N/A time=00:01:00.81 bitrate=N/A speed=16.7x    frame= 1671 fps=402 q=-0.0 size=N/A time=00:01:09.69 bitrate=N/A speed=16.8x    frame= 1897 fps=406 q=-0.0 size=N/A time=00:01:19.12 bitrate=N/A speed=  17x    frame= 2110 fps=406 q=-0.0 size=N/A time=00:01:28.00 bitrate=N/A speed=16.9x    frame= 2330 fps=408 q=-0.0 size=N/A time=00:01:37.18 bitrate=N/A speed=  17x    frame= 2532 fps=407 q=-0.0 size=N/A time=00:01:45.60 bitrate=N/A speed=  17x    frame= 2765 fps=410 q=-0.0 size=N/A time=00:01:55.32 bitrate=N/A speed=17.1x    frame= 2973 fps=410 q=-0.0 size=N/A time=00:02:03.99 bitrate=N/A speed=17.1x    frame= 3169 fps=408 q=-0.0 size=N/A time=00:02:12.17 bitrate=N/A speed=  17x    frame= 3414 fps=412 q=-0.0 size=N/A time=00:02:22.39 bitrate=N/A speed=17.2x    frame= 3597 fps=409 q=-0.0 size=N/A time=00:02:30.02 bitrate=N/A speed=17.1x    frame= 3860 fps=414 q=-0.0 size=N/A time=00:02:40.99 bitrate=N/A speed=17.3x    frame= 4044 fps=411 q=-0.0 size=N/A time=00:02:48.66 bitrate=N/A speed=17.2x    frame= 4245 fps=411 q=-0.0 size=N/A time=00:02:57.05 bitrate=N/A speed=17.1x    frame= 4514 fps=416 q=-0.0 size=N/A time=00:03:08.27 bitrate=N/A speed=17.3x    frame= 4731 fps=416 q=-0.0 size=N/A time=00:03:17.32 bitrate=N/A speed=17.4x    frame= 4964 fps=417 q=-0.0 size=N/A time=00:03:27.04 bitrate=N/A speed=17.4x    frame= 5199 fps=419 q=-0.0 size=N/A time=00:03:36.84 bitrate=N/A speed=17.5x    frame= 5426 fps=420 q=-0.0 size=N/A time=00:03:46.30 bitrate=N/A speed=17.5x    frame= 5691 fps=423 q=-0.0 size=N/A time=00:03:57.36 bitrate=N/A speed=17.7x    frame= 5910 fps=424 q=-0.0 size=N/A time=00:04:06.49 bitrate=N/A speed=17.7x    frame= 6138 fps=424 q=-0.0 size=N/A time=00:04:16.00 bitrate=N/A speed=17.7x    frame= 6374 fps=425 q=-0.0 size=N/A time=00:04:25.84 bitrate=N/A speed=17.7x    frame= 6622 fps=427 q=-0.0 size=N/A time=00:04:36.19 bitrate=N/A speed=17.8x    frame= 6828 fps=426 q=-0.0 size=N/A time=00:04:44.78 bitrate=N/A speed=17.8x    frame= 7036 fps=426 q=-0.0 size=N/A time=00:04:53.45 bitrate=N/A speed=17.8x    frame= 7281 fps=427 q=-0.0 size=N/A time=00:05:03.67 bitrate=N/A speed=17.8x    frame= 7489 fps=426 q=-0.0 size=N/A time=00:05:12.35 bitrate=N/A speed=17.8x    frame= 7748 fps=429 q=-0.0 size=N/A time=00:05:23.15 bitrate=N/A speed=17.9x    frame= 8003 fps=430 q=-0.0 size=N/A time=00:05:33.79 bitrate=N/A speed=  18x    frame= 8267 fps=433 q=-0.0 size=N/A time=00:05:44.80 bitrate=N/A speed=  18x    frame= 8539 fps=435 q=-0.0 size=N/A time=00:05:56.14 bitrate=N/A speed=18.2x    frame= 8783 fps=436 q=-0.0 size=N/A time=00:06:06.32 bitrate=N/A speed=18.2x    frame= 9026 fps=437 q=-0.0 size=N/A time=00:06:16.45 bitrate=N/A speed=18.2x    frame= 9290 fps=438 q=-0.0 size=N/A time=00:06:27.47 bitrate=N/A speed=18.3x    frame= 9518 fps=439 q=-0.0 size=N/A time=00:06:36.97 bitrate=N/A speed=18.3x    frame= 9764 fps=440 q=-0.0 size=N/A time=00:06:47.24 bitrate=N/A speed=18.3x    frame=10014 fps=440 q=-0.0 size=N/A time=00:06:57.66 bitrate=N/A speed=18.4x    frame=10259 fps=441 q=-0.0 size=N/A time=00:07:07.88 bitrate=N/A speed=18.4x    frame=10464 fps=440 q=-0.0 size=N/A time=00:07:16.43 bitrate=N/A speed=18.4x    frame=10727 fps=442 q=-0.0 size=N/A time=00:07:27.40 bitrate=N/A speed=18.4x    frame=10919 fps=440 q=-0.0 size=N/A time=00:07:35.41 bitrate=N/A speed=18.4x    frame=11166 fps=441 q=-0.0 size=N/A time=00:07:45.71 bitrate=N/A speed=18.4x    frame=11438 fps=443 q=-0.0 size=N/A time=00:07:57.05 bitrate=N/A speed=18.5x    frame=11719 fps=445 q=-0.0 size=N/A time=00:08:08.77 bitrate=N/A speed=18.6x    frame=11929 fps=444 q=-0.0 size=N/A time=00:08:17.53 bitrate=N/A speed=18.5x    frame=12139 fps=444 q=-0.0 size=N/A time=00:08:26.29 bitrate=N/A speed=18.5x    frame=12307 fps=441 q=-0.0 size=N/A time=00:08:33.30 bitrate=N/A speed=18.4x    frame=12517 fps=441 q=-0.0 size=N/A time=00:08:42.06 bitrate=N/A speed=18.4x    frame=12791 fps=442 q=-0.0 size=N/A time=00:08:53.49 bitrate=N/A speed=18.4x    frame=13038 fps=443 q=-0.0 size=N/A time=00:09:03.79 bitrate=N/A speed=18.5x    frame=13284 fps=443 q=-0.0 size=N/A time=00:09:14.05 bitrate=N/A speed=18.5x    frame=13539 fps=444 q=-0.0 size=N/A time=00:09:24.68 bitrate=N/A speed=18.5x    frame=13767 fps=444 q=-0.0 size=N/A time=00:09:34.19 bitrate=N/A speed=18.5x    frame=13979 fps=444 q=-0.0 size=N/A time=00:09:43.04 bitrate=N/A speed=18.5x    frame=14260 fps=445 q=-0.0 size=N/A time=00:09:54.76 bitrate=N/A speed=18.6x    frame=14500 fps=446 q=-0.0 size=N/A time=00:10:04.77 bitrate=N/A speed=18.6x    frame=14736 fps=446 q=-0.0 size=N/A time=00:10:14.61 bitrate=N/A speed=18.6x    frame=14930 fps=445 q=-0.0 size=N/A time=00:10:22.74 bitrate=N/A speed=18.6x    frame=15171 fps=445 q=-0.0 size=N/A time=00:10:32.75 bitrate=N/A speed=18.6x    frame=15417 fps=446 q=-0.0 size=N/A time=00:10:43.01 bitrate=N/A speed=18.6x    frame=15656 fps=446 q=-0.0 size=N/A time=00:10:52.98 bitrate=N/A speed=18.6x    frame=15910 fps=447 q=-0.0 size=N/A time=00:11:03.57 bitrate=N/A speed=18.6x    frame=16128 fps=446 q=-0.0 size=N/A time=00:11:12.67 bitrate=N/A speed=18.6x    frame=16415 fps=448 q=-0.0 size=N/A time=00:11:24.64 bitrate=N/A speed=18.7x    frame=16684 fps=449 q=-0.0 size=N/A time=00:11:35.86 bitrate=N/A speed=18.7x    frame=16931 fps=449 q=-0.0 size=N/A time=00:11:46.16 bitrate=N/A speed=18.7x    frame=17161 fps=449 q=-0.0 size=N/A time=00:11:55.75 bitrate=N/A speed=18.7x    frame=17418 fps=450 q=-0.0 size=N/A time=00:12:06.47 bitrate=N/A speed=18.8x    frame=17676 fps=450 q=-0.0 size=N/A time=00:12:17.23 bitrate=N/A speed=18.8x    frame=17909 fps=451 q=-0.0 size=N/A time=00:12:26.95 bitrate=N/A speed=18.8x    frame=18158 fps=451 q=-0.0 size=N/A time=00:12:37.33 bitrate=N/A speed=18.8x    frame=18392 fps=451 q=-0.0 size=N/A time=00:12:47.09 bitrate=N/A speed=18.8x    frame=18618 fps=451 q=-0.0 size=N/A time=00:12:56.52 bitrate=N/A speed=18.8x    frame=18869 fps=451 q=-0.0 size=N/A time=00:13:06.99 bitrate=N/A speed=18.8x    frame=19126 fps=452 q=-0.0 size=N/A time=00:13:17.71 bitrate=N/A speed=18.8x    frame=19351 fps=452 q=-0.0 size=N/A time=00:13:27.09 bitrate=N/A speed=18.8x    frame=19545 fps=451 q=-0.0 size=N/A time=00:13:35.18 bitrate=N/A speed=18.8x    frame=19776 fps=451 q=-0.0 size=N/A time=00:13:44.82 bitrate=N/A speed=18.8x    frame=20029 fps=451 q=-0.0 size=N/A time=00:13:55.37 bitrate=N/A speed=18.8x    frame=20299 fps=452 q=-0.0 size=N/A time=00:14:06.63 bitrate=N/A speed=18.9x    frame=20494 fps=451 q=-0.0 size=N/A time=00:14:14.77 bitrate=N/A speed=18.8x    frame=20732 fps=451 q=-0.0 size=N/A time=00:14:24.69 bitrate=N/A speed=18.8x    frame=20927 fps=450 q=-0.0 size=N/A time=00:14:32.83 bitrate=N/A speed=18.8x    frame=21147 fps=450 q=-0.0 size=N/A time=00:14:42.00 bitrate=N/A speed=18.8x    frame=21340 fps=449 q=-0.0 size=N/A time=00:14:50.05 bitrate=N/A speed=18.7x    frame=21602 fps=450 q=-0.0 size=N/A time=00:15:00.98 bitrate=N/A speed=18.8x    frame=21857 fps=451 q=-0.0 size=N/A time=00:15:11.61 bitrate=N/A speed=18.8x    frame=22113 fps=451 q=-0.0 size=N/A time=00:15:22.29 bitrate=N/A speed=18.8x    frame=22356 fps=451 q=-0.0 size=N/A time=00:15:32.43 bitrate=N/A speed=18.8x    frame=22612 fps=452 q=-0.0 size=N/A time=00:15:43.10 bitrate=N/A speed=18.8x    frame=22886 fps=452 q=-0.0 size=N/A time=00:15:54.53 bitrate=N/A speed=18.9x    frame=23144 fps=453 q=-0.0 size=N/A time=00:16:05.29 bitrate=N/A speed=18.9x    frame=23412 fps=454 q=-0.0 size=N/A time=00:16:16.47 bitrate=N/A speed=18.9x    frame=23618 fps=453 q=-0.0 size=N/A time=00:16:25.06 bitrate=N/A speed=18.9x    frame=23891 fps=454 q=-0.0 size=N/A time=00:16:36.45 bitrate=N/A speed=18.9x    frame=24102 fps=453 q=-0.0 size=N/A time=00:16:45.25 bitrate=N/A speed=18.9x    frame=24320 fps=453 q=-0.0 size=N/A time=00:16:54.34 bitrate=N/A speed=18.9x    frame=24559 fps=453 q=-0.0 size=N/A time=00:17:04.31 bitrate=N/A speed=18.9x    frame=24837 fps=454 q=-0.0 size=N/A time=00:17:15.90 bitrate=N/A speed=18.9x    frame=25087 fps=454 q=-0.0 size=N/A time=00:17:26.33 bitrate=N/A speed=18.9x    frame=25327 fps=454 q=-0.0 size=N/A time=00:17:36.34 bitrate=N/A speed=  19x    frame=25592 fps=455 q=-0.0 size=N/A time=00:17:47.39 bitrate=N/A speed=  19x    frame=25806 fps=455 q=-0.0 size=N/A time=00:17:56.32 bitrate=N/A speed=  19x    frame=26050 fps=455 q=-0.0 size=N/A time=00:18:06.50 bitrate=N/A speed=  19x    frame=26286 fps=455 q=-0.0 size=N/A time=00:18:16.34 bitrate=N/A speed=  19x    frame=26533 fps=455 q=-0.0 size=N/A time=00:18:26.64 bitrate=N/A speed=  19x    frame=26756 fps=455 q=-0.0 size=N/A time=00:18:35.94 bitrate=N/A speed=  19x    frame=27007 fps=455 q=-0.0 size=N/A time=00:18:46.41 bitrate=N/A speed=  19x    frame=27243 fps=455 q=-0.0 size=N/A time=00:18:56.26 bitrate=N/A speed=  19x    frame=27509 fps=456 q=-0.0 size=N/A time=00:19:07.35 bitrate=N/A speed=  19x    frame=27760 fps=456 q=-0.0 size=N/A time=00:19:17.82 bitrate=N/A speed=  19x    frame=28022 fps=456 q=-0.0 size=N/A time=00:19:28.75 bitrate=N/A speed=  19x    frame=28241 fps=456 q=-0.0 size=N/A time=00:19:37.88 bitrate=N/A speed=  19x    frame=28496 fps=456 q=-0.0 size=N/A time=00:19:48.52 bitrate=N/A speed=  19x    frame=28784 fps=457 q=-0.0 size=N/A time=00:20:00.53 bitrate=N/A speed=19.1x    frame=29030 fps=457 q=-0.0 size=N/A time=00:20:10.79 bitrate=N/A speed=19.1x    frame=29256 fps=457 q=-0.0 size=N/A time=00:20:20.21 bitrate=N/A speed=19.1x    frame=29480 fps=457 q=-0.0 size=N/A time=00:20:29.56 bitrate=N/A speed=19.1x    frame=29703 fps=457 q=-0.0 size=N/A time=00:20:38.86 bitrate=N/A speed=19.1x    frame=29957 fps=457 q=-0.0 size=N/A time=00:20:49.45 bitrate=N/A speed=19.1x    frame=30202 fps=457 q=-0.0 size=N/A time=00:20:59.67 bitrate=N/A speed=19.1x    frame=30452 fps=458 q=-0.0 size=N/A time=00:21:10.10 bitrate=N/A speed=19.1x    frame=30703 fps=458 q=-0.0 size=N/A time=00:21:20.57 bitrate=N/A speed=19.1x    frame=30979 fps=458 q=-0.0 size=N/A time=00:21:32.08 bitrate=N/A speed=19.1x    frame=31239 fps=459 q=-0.0 size=N/A time=00:21:42.92 bitrate=N/A speed=19.1x    frame=31468 fps=459 q=-0.0 size=N/A time=00:21:52.47 bitrate=N/A speed=19.1x    frame=31748 fps=459 q=-0.0 size=N/A time=00:22:04.15 bitrate=N/A speed=19.2x    frame=32013 fps=460 q=-0.0 size=N/A time=00:22:15.20 bitrate=N/A speed=19.2x    frame=32269 fps=460 q=-0.0 size=N/A time=00:22:25.88 bitrate=N/A speed=19.2x    frame=32494 fps=460 q=-0.0 size=N/A time=00:22:35.27 bitrate=N/A speed=19.2x    frame=32714 fps=459 q=-0.0 size=N/A time=00:22:44.44 bitrate=N/A speed=19.2x    frame=32941 fps=459 q=-0.0 size=N/A time=00:22:53.91 bitrate=N/A speed=19.2x    frame=33166 fps=459 q=-0.0 size=N/A time=00:23:03.29 bitrate=N/A speed=19.1x    frame=33366 fps=459 q=-0.0 size=N/A time=00:23:11.64 bitrate=N/A speed=19.1x    frame=33599 fps=459 q=-0.0 size=N/A time=00:23:21.35 bitrate=N/A speed=19.1x    frame=33803 fps=458 q=-0.0 size=N/A time=00:23:29.86 bitrate=N/A speed=19.1x    frame=34030 fps=458 q=-0.0 size=N/A time=00:23:39.33 bitrate=N/A speed=19.1x    frame=34246 fps=458 q=-0.0 size=N/A time=00:23:48.34 bitrate=N/A speed=19.1x    frame=34449 fps=457 q=-0.0 size=N/A time=00:23:56.81 bitrate=N/A speed=19.1x    frame=34687 fps=457 q=-0.0 size=N/A time=00:24:06.73 bitrate=N/A speed=19.1x    frame=34940 fps=458 q=-0.0 size=N/A time=00:24:17.28 bitrate=N/A speed=19.1x    [Parsed_psnr_10 @ 00000197a40d6e40] PSNR y:47.619361 u:49.832010 v:50.391184 average:48.300521 min:38.218273 max:inf
[out#0/null @ 00000197a1e74200] video:15038KiB audio:274076KiB subtitle:0KiB other streams:0KiB global headers:0KiB muxing overhead: unknown
frame=34997 fps=458 q=-0.0 Lsize=N/A time=00:24:19.66 bitrate=N/A speed=19.1x    
